<svg xmlns="http://www.w3.org/2000/svg" width="512" height="512" viewBox="0 0 56.48 56.48"><path d="M15.051 25.813c-1.058 0-1.869.34-1.869.34l-.224 1.33s.669-.272 1.682-.272c.575 0 .995.064.995.531 0 .284-.051.389-.051.389s-.453-.037-.663-.037c-1.335 0-2.737.568-2.737 2.287 0 1.354.919 1.663 1.49 1.663 1.089 0 1.559-.706 1.583-.708l-.051.59h1.359l.606-4.25c-.001-1.805-1.574-1.863-2.12-1.863zm-.762 4.937c-.479 0-.604-.365-.604-.583 0-.422.229-.93 1.36-.93.264.001.292.028.336.036.03.26-.162 1.477-1.092 1.477zm4.821-3.009c0 .771 1.839.392 1.839 2.31 0 2.051-1.987 1.961-2.334 1.961-1.295 0-1.695-.178-1.732-.188l.206-1.351c.002-.01.65.236 1.371.236.416 0 .956-.041.956-.537 0-.746-1.932-.566-1.932-2.334 0-1.559 1.158-2.015 2.3-2.015.882 0 1.424.121 1.424.121l-.195 1.362s-.837-.069-1.054-.069c-.55.001-.849.121-.849.504zm3.663 2.348c-.034.211.025.498.562.498.137 0 .292-.046.398-.046l-.193 1.312c-.155.043-.594.199-1.157.203-.719.007-1.23-.397-1.23-1.308 0-.612.877-5.655.911-5.688h1.543l-.157.9h.77l-.197 1.452h-.817l-.433 2.677zm5.954-.637s.203-1 .203-1.407c0-1.017-.506-2.257-2.2-2.257-1.552.001-2.701 1.673-2.701 3.563 0 2.181 1.439 2.699 2.666 2.699 1.132 0 1.63-.254 1.63-.254l.272-1.488s-.861.38-1.639.38c-1.657 0-1.367-1.236-1.367-1.236h3.136zm-1.992-2.281c.871 0 .71.979.71 1.057h-1.713c0-.1.162-1.057 1.003-1.057zm-13.998-2.588l-1.217 7.35H9.94l.879-5.541-1.983 5.541H7.773l-.138-5.541-.939 5.541H5.207l1.234-7.35h2.252l.079 4.51 1.521-4.51h2.444zm19.523-.968h-8.014c.079-.15.359-.754.781-1.553h6.607c.237.502.445 1.02.626 1.553zm-1.461-3.076h-4.913c.315-.52.663-1.052 1.033-1.552h2.754c.408.492.785 1.01 1.126 1.552zm-2.564 18.452a14.336 14.336 0 0 1-1.482-1.584h2.993a14.488 14.488 0 0 1-1.472 1.552h-.003l.001.001-.037.031zm2.582-3.078h-5.143c-.313-.5-.605-1.013-.856-1.552h6.843a14.514 14.514 0 0 1-.844 1.552zm1.834-10.008c-.205.418-.386.801-.574 1.79-1.071-.379-1.155 1.695-1.604 4.25h-1.584l.963-5.982h1.437l-.139.867s.512-.943 1.203-.943c.202-.002.298.018.298.018zm2.857 4.643c.52 0 1.276-.379 1.276-.379l-.276 1.684s-.83.211-1.35.211c-1.842 0-2.777-1.271-2.777-3.196 0-2.903 1.733-4.449 3.514-4.449.804 0 1.738.378 1.738.378l-.252 1.635s-.631-.441-1.416-.441c-1.05 0-1.992 1.002-1.992 2.824 0 .897.439 1.733 1.535 1.733zm15.066.534a.473.473 0 0 0-.238.408c0 .081.021.158.063.232a.448.448 0 0 0 .173.175.47.47 0 1 0 .232-.876.48.48 0 0 0-.23.061zm.569.211a.387.387 0 0 1 .002.389.397.397 0 0 1-.338.198.395.395 0 0 1-.392-.392c0-.067.017-.132.054-.195a.39.39 0 0 1 .674 0zm-6.266-1.776c0 1.265.629 2.504 1.913 2.504.925 0 1.437-.645 1.437-.645l-.067.551h1.501l1.18-7.339-1.548.003-.333 2.065s-.58-.803-1.49-.803c-1.415.001-2.593 1.706-2.593 3.664zm3.698-.899c0 .815-.403 1.904-1.239 1.904-.556 0-.816-.466-.816-1.198 0-1.197.537-1.986 1.216-1.986.554.001.839.382.839 1.28zm2.511 7.729a.108.108 0 0 0-.043-.026.157.157 0 0 0 .105-.046.134.134 0 0 0 .016-.17.121.121 0 0 0-.064-.049.38.38 0 0 0-.127-.015h-.174v.505h.082v-.215h.047c.028 0 .051.006.064.018a.454.454 0 0 1 .086.117l.044.08h.101l-.062-.099a.727.727 0 0 0-.075-.1zm-.107-.084h-.1v-.152h.094a.24.24 0 0 1 .08.009.079.079 0 0 1 .035.026.069.069 0 0 1 .012.039c0 .023-.008.043-.025.057s-.05.021-.096.021zm4.047-26.324H1.454C.65 9.939 0 10.59 0 11.393v33.695c0 .803.65 1.454 1.454 1.454h53.572c.804 0 1.454-.651 1.454-1.454V11.393c0-.803-.65-1.454-1.454-1.454zm-3.617 26.58c-.042.076-.099.134-.173.175a.475.475 0 0 1-.466 0 .469.469 0 0 1 .002-.815.494.494 0 0 1 .231-.06c.079 0 .155.021.229.06a.425.425 0 0 1 .175.174.477.477 0 0 1 .002.466zm1.048-8.278c.002 8.005-6.484 14.497-14.49 14.499a14.436 14.436 0 0 1-9.73-3.749 14.435 14.435 0 0 1-9.717 3.745c-8.001 0-14.495-6.493-14.495-14.495 0-7.97 6.443-14.444 14.402-14.496h.093c3.738 0 7.146 1.418 9.718 3.745a14.443 14.443 0 0 1 9.722-3.748c8.006-.003 14.497 6.486 14.499 14.492-.002.002-.002.004-.002.007zM50.6 31.244v.504h.082v-.214h.047c.029 0 .052.006.066.017a.51.51 0 0 1 .086.119l.043.079h.101l-.062-.099a.627.627 0 0 0-.074-.1.115.115 0 0 0-.043-.026.155.155 0 0 0 .104-.046.13.13 0 0 0 .016-.17c-.016-.022-.037-.039-.062-.049s-.069-.015-.128-.015H50.6zm.291.103a.074.074 0 0 1-.011.096c-.019.015-.05.021-.097.021h-.099v-.152h.092c.04 0 .066.003.082.008a.08.08 0 0 1 .033.027zm-10.822-5.534c-1.06 0-1.87.34-1.87.34l-.225 1.33s.67-.272 1.682-.272c.575 0 .996.064.996.531 0 .284-.053.389-.053.389s-.452-.037-.664-.037c-1.334 0-2.735.568-2.735 2.287 0 1.354.92 1.663 1.49 1.663 1.088 0 1.558-.706 1.583-.708l-.051.59h1.358l.606-4.25c.003-1.805-1.571-1.863-2.117-1.863zm-.76 4.937c-.48 0-.604-.365-.604-.583 0-.422.229-.93 1.36-.93.263.001.291.028.336.036.029.26-.164 1.477-1.092 1.477zm5.725-3.056c-1.071-.379-1.153 1.694-1.604 4.25h-1.584l.963-5.982h1.438l-.138.867s.513-.943 1.204-.943c.201 0 .297.02.297.02-.205.417-.387.8-.576 1.788z" fill="#FFF"/></svg>