<svg xmlns="http://www.w3.org/2000/svg" width="512" height="512" viewBox="0 0 56.48 56.48"><path d="M33.372 24.888c.228.15.337.385.343.697.002.479-.176.843-.526 1.104-.354.254-.845.384-1.478.384h-.291c-.253.002-.416-.202-.359-.446l.354-1.519a.599.599 0 0 1 .56-.445l.381-.002c.449.002.785.077 1.016.227zM17.505 28.46c-.3.043-.56.103-.771.174l-.496.338c-.116.146-.171.332-.171.571l.226.438c.153.086.379.128.667.128.19 0 .396-.046.612-.134l.46-.237.182-.242c.072-.282.221-.909.238-.987l-.081-.144c-.069.002-.598.062-.866.095zm21.263.006a4.233 4.233 0 0 0-.771.174 1.188 1.188 0 0 0-.501.338c-.112.146-.168.332-.168.572l.229.437c.146.087.369.129.666.129.187 0 .393-.046.608-.133l.457-.237.188-.242c.07-.285.222-.91.234-.988l-.082-.145c-.069 0-.596.062-.86.095zm-27.665-3.831l-.383.002a.591.591 0 0 0-.557.444l-.353 1.52c-.055.246.102.447.356.447h.286c.635 0 1.127-.129 1.48-.389.353-.258.534-.625.526-1.1.002-.313-.111-.549-.337-.698-.229-.149-.57-.226-1.018-.226zM56.48 11.393v33.695c0 .803-.65 1.454-1.454 1.454H1.454A1.454 1.454 0 0 1 0 45.087V11.393c0-.803.65-1.454 1.454-1.454h53.572c.804 0 1.454.651 1.454 1.454zM14.681 25.374c0-.42-.069-.773-.225-1.055a1.732 1.732 0 0 0-.639-.689 3.014 3.014 0 0 0-1.018-.374 8.264 8.264 0 0 0-1.381-.109l-2.444.001a.614.614 0 0 0-.563.447l-1.645 7.163c-.06.242.099.446.353.446h1.17a.601.601 0 0 0 .562-.446l.402-1.738a.599.599 0 0 1 .561-.444h.334c1.432-.002 2.54-.294 3.336-.88.802-.587 1.197-1.363 1.197-2.322zm6.086 1.126c.002-.521-.224-.909-.667-1.157-.441-.249-1.139-.373-2.092-.373-.471 0-.941.037-1.416.11-.351.054-.385.063-.6.111-.445.097-.515.542-.515.542l-.143.589c-.081.376.136.361.226.33.194-.058.303-.117.7-.207.379-.086.779-.151 1.097-.147.468 0 .826.05 1.064.15.235.103.353.278.353.532l-.021.165-.168.104a19.83 19.83 0 0 0-1.727.187 5.375 5.375 0 0 0-1.484.408c-.446.196-.776.458-1.007.794-.223.338-.334.744-.334 1.224 0 .452.162.821.476 1.11.316.283.734.42 1.233.42.316 0 .561-.025.735-.067l.566-.194.48-.268.441-.291.006.007-.044.188-.002.007v.002c-.048.228.09.417.313.438l.004.004h1.088l.016-.006a.605.605 0 0 0 .503-.438l.854-3.692.044-.301.021-.281zm2.592 7.112l4.664-7.887s.448-.674.032-.668c-.277.003-1.404 0-1.404 0-.252 0-.576.205-.736.447 0 0-1.676 2.876-1.839 3.165l-.194-.002-.522-3.143c-.058-.248-.316-.459-.637-.459l-1.049.002c-.252 0-.408.201-.35.446 0 0 .796 4.532.956 5.598.074.59-.009.693-.009.693l-1.037 1.808c-.154.246-.071.446.181.446l1.212-.002c.25 0 .582-.198.732-.444zM35.936 25.4c-.002-.42-.075-.774-.225-1.054a1.795 1.795 0 0 0-.644-.692 2.89 2.89 0 0 0-1.019-.373 8.153 8.153 0 0 0-1.375-.108l-2.447.002a.612.612 0 0 0-.56.445l-1.646 7.167c-.06.243.104.445.353.444l1.173-.003a.605.605 0 0 0 .562-.44l.396-1.741a.604.604 0 0 1 .562-.443h.334c1.432 0 2.545-.295 3.344-.878.791-.593 1.192-1.366 1.192-2.326zm6.093 1.104c0-.521-.223-.907-.669-1.155-.445-.249-1.142-.375-2.091-.375-.471 0-.944.037-1.416.113-.35.051-.385.062-.602.109-.447.096-.514.542-.514.542l-.143.588c-.08.376.131.359.229.33.193-.058.3-.115.695-.207.378-.085.779-.149 1.099-.147.466 0 .824.05 1.062.151a.535.535 0 0 1 .354.531l-.018.165-.168.106c-.67.041-1.15.102-1.728.186a5.457 5.457 0 0 0-1.487.408c-.442.198-.777.459-1.006.795-.224.336-.335.744-.335 1.221 0 .454.163.825.479 1.111.318.281.732.423 1.232.423.313-.005.559-.024.733-.069l.565-.191.483-.267.438-.295.007.009-.039.188-.005.004.002.003a.34.34 0 0 0 .312.438l.002.006h1.088l.016-.006a.603.603 0 0 0 .499-.44l.856-3.689.043-.303.027-.283zm3.72-2.827c.054-.244-.099-.443-.354-.443h-1.047c-.215 0-.409.159-.504.355l-.059.091-.052.232-1.466 6.662-.047.205.002.005c-.049.218.086.385.293.417l.02.025h1.088c.215 0 .413-.162.506-.362l.055-.084 1.568-7.101-.003-.002zm2.081-.928h-.392v-.325h-.193v.325h-.132v.162h.132v.606l.091.3.266.095.111-.009.117-.023v-.171h-.009l-.073.022-.098.014-.12-.019-.062-.06-.027-.094-.003-.14v-.521h.392v-.162zm1.897.401l-.09-.318-.277-.113-.205.042-.21.141-.122-.136-.198-.047-.188.042-.182.116v-.127h-.188v1.139h.188v-.85l.159-.099.157-.039.129.023.064.065.027.109.008.141v.65h.19v-.729l-.002-.06-.003-.056.163-.103.159-.041.127.023.066.065.025.11.012.139v.65h.189v-.737z" fill="#FFF"/></svg>